<?xml version="1.0" encoding="utf-8"?>
<!-- Generator: Adobe Illustrator 26.4.1, SVG Export Plug-In . SVG Version: 6.00 Build 0)  -->
<svg version="1.1" id="Слой_1" xmlns="http://www.w3.org/2000/svg" xmlns:xlink="http://www.w3.org/1999/xlink" x="0px" y="0px"
	 viewBox="0 0 3171.4 2803.6" style="enable-background:new 0 0 3171.4 2803.6;" xml:space="preserve">
<style type="text/css">
	.st0{fill:#A6ACEC;}
	.st1{fill:#A56CC1;}
</style>
<g transform="scale(8.571428571428571) translate(10, 10)">
	<g id="SvgjsG1493" transform="matrix(2.472829689070041,0,0,2.472829689070041,48.66941134432271,-19.781737830967025)">
		<g>
			<g>
				<path class="st0" d="M26.5,87.9c-0.9,0-1.9-0.5-2.3-1.4c-0.6-1.3-0.1-2.8,1.2-3.4l48.9-23.2c1.3-0.6,2.8-0.1,3.4,1.2
					c0.6,1.3,0.1,2.8-1.2,3.4L27.6,87.7C27.3,87.8,26.9,87.9,26.5,87.9z"/>
			</g>
			<g>
				<path class="st0" d="M41.9,72.1c-0.4,0-0.7-0.1-1.1-0.3l-15.4-7.4c-1.3-0.6-1.8-2.1-1.2-3.4c0.6-1.3,2.1-1.8,3.4-1.2L43,67.3
					c1.3,0.6,1.8,2.1,1.2,3.4C43.8,71.6,42.9,72.1,41.9,72.1z"/>
			</g>
			<g>
				<path class="st0" d="M75.5,87.9c-0.4,0-0.7-0.1-1.1-0.3l-15.2-7.4c-1.3-0.6-1.8-2.1-1.2-3.4c0.6-1.3,2.1-1.8,3.4-1.2l15.2,7.4
					c1.3,0.6,1.8,2.1,1.2,3.4C77.3,87.3,76.4,87.9,75.5,87.9z"/>
			</g>
			<g>
				<path class="st0" d="M51.2,64.9c-11.3,0-20.4-9.2-20.4-20.4c0-4.4,2.5-7.3,4.7-9.9c2.7-3.1,4.1-5.1,3-8.5c-0.3-1,0-2,0.7-2.7
					c0.8-0.7,1.8-0.8,2.8-0.4c0.1,0.1,14.5,7,9.8,25.3c-0.3,1.4-1.7,2.2-3.1,1.8c-1.4-0.3-2.2-1.7-1.8-3.1
					c2.2-8.4-0.5-13.6-3.2-16.4c-0.7,3-2.7,5.3-4.4,7.3c-1.9,2.2-3.5,4.1-3.5,6.6c0,8.5,6.9,15.4,15.4,15.4
					c8.5,0,15.4-6.9,15.4-15.4c0-5.1-2.8-8.9-6-13.2c-3.1-4.3-6.6-9-7.4-15.4c-1.2,1.4-2.3,3.2-2.4,5.4c-0.1,1.4-1.3,2.5-2.7,2.4
					c-1.4-0.1-2.5-1.3-2.4-2.7c0.5-8,8.4-12.4,8.7-12.6c0.8-0.4,1.8-0.4,2.6,0.1c0.8,0.5,1.2,1.4,1.1,2.4
					c-0.8,7.5,2.8,12.3,6.5,17.4c3.4,4.7,7,9.5,7,16.2C71.7,55.7,62.5,64.9,51.2,64.9z"/>
			</g>
		</g>
	</g>
	<g id="SvgjsG1494" transform="matrix(4.419192089473535,0,0,4.419192089473535,-29.96212118657897,197.58333305236866)">
		<path class="st1" d="M11.1,16.1c0,0.5,0.1,0.9,0.2,1.2s0.5,0.5,1.1,0.5c0.3,0,0.5,0,0.8,0v2.5c-0.5,0.1-0.9,0.1-1.3,0.1
			c-0.9,0-1.5-0.1-2.1-0.2s-0.9-0.4-1.2-0.8c-0.3-0.4-0.4-1-0.4-1.7v-6.1H6.8V8.8h1.3V5.9h3v2.9h2.2v2.6h-2.2V16.1z M18,19.5
			c-0.9-0.5-1.6-1.2-2.2-2.1c-0.5-0.9-0.8-1.8-0.8-2.9c0-1,0.3-2,0.8-2.9c0.5-0.9,1.3-1.6,2.2-2.1s1.9-0.8,3-0.8s2.1,0.3,3,0.8
			c0.9,0.5,1.6,1.2,2.2,2.1c0.5,0.9,0.8,1.8,0.8,2.9c0,1-0.3,2-0.8,2.9c-0.5,0.9-1.3,1.6-2.2,2.1c-0.9,0.5-1.9,0.8-3,0.8
			S18.9,20,18,19.5z M19.5,11.8c-0.5,0.3-0.8,0.6-1.1,1.1s-0.4,1-0.4,1.6c0,0.6,0.1,1.1,0.4,1.6c0.3,0.5,0.6,0.8,1.1,1.1
			c0.5,0.3,1,0.4,1.5,0.4c0.6,0,1.1-0.1,1.5-0.4s0.8-0.6,1.1-1.1s0.4-1,0.4-1.6c0-0.6-0.1-1.1-0.4-1.6s-0.6-0.8-1.1-1.1
			c-0.5-0.3-1-0.4-1.5-0.4C20.5,11.4,20,11.6,19.5,11.8L19.5,11.8z M29.2,15.5V9h3v6.5c0,0.8,0.2,1.4,0.6,1.7s0.9,0.5,1.5,0.5
			c0.6,0,1.1-0.2,1.5-0.6c0.4-0.4,0.6-1.2,0.6-2.2V9h3v11h-3v-0.9c-0.4,0.4-0.8,0.7-1.3,0.9s-1.1,0.3-1.6,0.3
			C30.7,20.2,29.2,18.7,29.2,15.5L29.2,15.5z M47.7,11.9c-0.6,0.1-1.1,0.5-1.6,1c-0.5,0.5-0.7,1.3-0.7,2.3V20h-3V9h3v1.5
			c0.5-0.7,1.1-1.1,1.8-1.3c0.7-0.2,1.4-0.3,2-0.3v2.9C48.7,11.7,48.2,11.7,47.7,11.9z M53.7,7.4c-0.3,0.3-0.7,0.5-1.2,0.5
			c-0.5,0-0.9-0.2-1.2-0.5c-0.3-0.3-0.5-0.7-0.5-1.2c0-0.4,0.2-0.8,0.5-1.1c0.3-0.3,0.7-0.5,1.2-0.5c0.5,0,0.8,0.2,1.2,0.5
			s0.5,0.7,0.5,1.1C54.2,6.7,54,7.1,53.7,7.4z M51,9h3v11h-3V9z M56.4,18.5l1.6-2.1c0.5,0.3,1,0.6,1.7,0.8c0.6,0.2,1.3,0.3,1.9,0.3
			c0.5,0,0.8-0.1,1.1-0.3s0.5-0.4,0.5-0.7s-0.2-0.5-0.5-0.6c-0.3-0.1-0.7-0.2-1-0.2c-0.3,0-0.5-0.1-0.6-0.1
			c-0.8-0.1-1.5-0.3-2.1-0.5s-1.1-0.5-1.6-1s-0.7-1.1-0.7-2c0-1.4,0.5-2.3,1.5-2.8c1-0.5,2-0.7,3-0.7c0.9,0,1.7,0.1,2.4,0.4
			c0.7,0.3,1.5,0.7,2.2,1.2l-1.6,2c-0.5-0.3-1-0.6-1.5-0.7c-0.5-0.2-1-0.3-1.6-0.3c-0.3,0-0.7,0.1-1,0.2c-0.3,0.1-0.5,0.3-0.5,0.6
			c0,0.3,0.2,0.5,0.7,0.7c0.4,0.1,0.9,0.2,1.4,0.3c0.9,0.2,1.7,0.3,2.2,0.5c0.6,0.2,1.1,0.5,1.5,1s0.7,1.1,0.7,2
			c0,1.1-0.4,2-1.2,2.6s-1.9,0.9-3.3,0.9C59.5,20.3,57.8,19.7,56.4,18.5L56.4,18.5z M84.9,10c0.8,0.8,1.1,2,1.1,3.5V20h-3v-6.5
			c0-0.8-0.2-1.4-0.6-1.7c-0.4-0.3-0.9-0.5-1.6-0.5c-0.5,0-1,0.2-1.4,0.6s-0.6,1.1-0.7,2V20h-3v-6.5c0-0.8-0.2-1.4-0.6-1.7
			s-0.9-0.5-1.5-0.5c-0.6,0-1.1,0.2-1.5,0.6c-0.4,0.4-0.6,1.2-0.6,2.3l0,5.8h-3V9h3v1c0.4-0.3,0.9-0.6,1.4-0.9
			c0.5-0.2,1-0.3,1.5-0.3c1.5,0,2.7,0.5,3.5,1.5c0.4-0.5,0.9-0.8,1.5-1.1c0.6-0.3,1.3-0.4,2-0.4C83,8.8,84.1,9.2,84.9,10L84.9,10z"
			/>
	</g>
	<g id="SvgjsG1495" transform="matrix(0.6070039615849873,0,0,0.6070039615849873,27.63579797037946,294.76622393363516)">
		<path class="st0" d="M12.6,6.8H8.2V20H5V6.8H0.6V4h12C12.6,4,12.6,6.8,12.6,6.8z M41.7,12c0,1.1-0.2,2.2-0.7,3.2
			c-0.4,1-1.1,1.9-1.8,2.6c-0.8,0.7-1.7,1.3-2.7,1.8c-1,0.4-2.1,0.6-3.3,0.6s-2.3-0.2-3.3-0.6c-1-0.4-1.9-1-2.7-1.8
			c-0.8-0.7-1.4-1.6-1.8-2.6s-0.7-2.1-0.7-3.2s0.2-2.2,0.7-3.3c0.4-1,1.1-1.9,1.8-2.6s1.7-1.3,2.7-1.8s2.1-0.6,3.3-0.6
			c1.2,0,2.3,0.2,3.3,0.6s1.9,1,2.7,1.8c0.8,0.8,1.4,1.6,1.8,2.6C41.4,9.8,41.7,10.8,41.7,12z M38.5,12c0-0.7-0.1-1.4-0.4-2.1
			S37.5,8.7,37,8.2c-0.5-0.5-1.1-0.9-1.7-1.2c-0.7-0.3-1.3-0.4-2.1-0.4c-0.7,0-1.4,0.1-2.1,0.4c-0.7,0.3-1.2,0.7-1.7,1.2
			c-0.5,0.5-0.9,1.1-1.1,1.7c-0.3,0.6-0.4,1.3-0.4,2.1c0,0.7,0.1,1.4,0.4,2.1c0.3,0.7,0.7,1.2,1.1,1.7c0.5,0.5,1.1,0.9,1.7,1.2
			c0.7,0.3,1.4,0.4,2.1,0.4c0.7,0,1.4-0.1,2.1-0.4s1.2-0.7,1.7-1.2c0.5-0.5,0.9-1.1,1.2-1.7S38.5,12.7,38.5,12L38.5,12z M69.7,4v8.7
			c0,1.1-0.2,2.1-0.5,3c-0.3,0.9-0.8,1.7-1.4,2.4c-0.6,0.7-1.3,1.2-2.2,1.6s-1.9,0.6-3,0.6c-1.1,0-2.1-0.2-3-0.6
			c-0.9-0.4-1.6-0.9-2.2-1.6c-0.6-0.7-1.1-1.5-1.4-2.4c-0.3-0.9-0.5-1.9-0.5-2.9V4h3.1v8.8c0,0.6,0.1,1.2,0.3,1.7
			c0.2,0.5,0.4,1,0.8,1.4c0.3,0.4,0.8,0.7,1.2,0.9s1.1,0.4,1.7,0.4c0.7,0,1.3-0.1,1.8-0.3c0.5-0.2,0.9-0.5,1.2-0.9
			c0.3-0.4,0.6-0.9,0.7-1.4c0.2-0.5,0.2-1.1,0.2-1.8V4L69.7,4L69.7,4z M95.9,20h-3.4l-1.1-3.6c-0.1-0.4-0.3-0.8-0.4-1.1
			c-0.2-0.3-0.4-0.6-0.7-0.9s-0.6-0.4-0.9-0.6s-0.8-0.2-1.2-0.2h-1.2V20h-3.1V4l6.3,0c0.7,0,1.3,0.1,1.9,0.3s1.1,0.6,1.5,1
			c0.4,0.4,0.8,0.9,1,1.5s0.4,1.2,0.4,1.8c0,0.5-0.1,0.9-0.2,1.4c-0.1,0.4-0.4,0.8-0.6,1.2s-0.6,0.7-0.9,1s-0.8,0.5-1.2,0.6
			c0.5,0.2,0.9,0.5,1.2,0.8c0.3,0.4,0.6,0.8,0.8,1.3c0.1,0.2,0.2,0.5,0.3,0.7c0.1,0.2,0.2,0.5,0.2,0.7s0.2,0.5,0.3,0.8
			s0.2,0.6,0.3,1c0.1,0.4,0.3,0.8,0.4,1.1S95.7,19.8,95.9,20L95.9,20z M91.8,8.8c0-0.4-0.1-0.7-0.2-1S91.3,7.2,91,7
			c-0.2-0.2-0.5-0.4-0.8-0.5s-0.7-0.2-1.1-0.2h-2.2v5h2.2c0.4,0,0.7-0.1,1.1-0.2c0.3-0.1,0.6-0.3,0.8-0.5c0.2-0.2,0.4-0.5,0.6-0.8
			C91.8,9.5,91.8,9.2,91.8,8.8z M112.5,20h-3.1V4h3.1V20z M137.7,15.8c0,0.6-0.1,1.2-0.4,1.7c-0.3,0.5-0.6,1-1.1,1.4
			c-0.5,0.4-1,0.7-1.7,1c-0.6,0.2-1.3,0.4-2.1,0.4c-0.7,0-1.3,0-1.9-0.1c-0.6-0.1-1.1-0.2-1.6-0.4s-1-0.4-1.4-0.7
			c-0.4-0.3-0.9-0.6-1.4-1l2.2-2.2c0.6,0.5,1.3,0.9,1.9,1.1c0.6,0.2,1.3,0.3,2,0.3c0.3,0,0.6,0,0.8-0.1s0.5-0.2,0.7-0.4
			s0.3-0.3,0.5-0.5s0.2-0.4,0.2-0.7c0-0.3,0-0.5-0.1-0.7c-0.1-0.2-0.3-0.4-0.5-0.6c-0.2-0.2-0.6-0.4-1-0.6s-1-0.4-1.6-0.6
			c-0.6-0.2-1.2-0.5-1.7-0.7s-1-0.6-1.4-1c-0.4-0.4-0.7-0.8-1-1.4c-0.2-0.5-0.4-1.1-0.4-1.8c0-0.7,0.1-1.3,0.4-1.9
			c0.3-0.6,0.6-1.1,1.1-1.5c0.5-0.4,1-0.7,1.7-0.9c0.6-0.2,1.3-0.3,2.1-0.3c1.2,0,2.3,0.2,3.1,0.5s1.6,0.8,2.2,1.4l-2.2,2.2
			c-0.4-0.4-0.8-0.7-1.3-0.9c-0.5-0.2-1.1-0.3-1.7-0.3c-0.3,0-0.6,0-0.9,0.1s-0.5,0.2-0.7,0.4c-0.2,0.2-0.3,0.3-0.4,0.5
			c-0.1,0.2-0.2,0.4-0.2,0.7c0,0.3,0.1,0.5,0.2,0.7c0.1,0.2,0.3,0.4,0.5,0.6s0.6,0.4,1,0.6c0.4,0.2,0.9,0.4,1.6,0.6
			c0.8,0.3,1.5,0.6,2.1,0.9c0.6,0.3,1,0.7,1.4,1.1c0.4,0.4,0.6,0.9,0.8,1.4S137.7,15.2,137.7,15.8L137.7,15.8z M167.5,20h-3V9.3
			l-5,8.5l-4.8-8.6V20h-3V4h3.5l4.4,7.9l4.6-7.9h3.4L167.5,20L167.5,20z M210.5,6.7H203v3.7h7.4v2.5H203V20h-3V4h10.6
			C210.5,4,210.5,6.7,210.5,6.7z M240.4,12c0,1.1-0.2,2.2-0.7,3.2c-0.4,1-1.1,1.9-1.8,2.6c-0.8,0.7-1.7,1.3-2.7,1.8
			c-1,0.4-2.1,0.6-3.3,0.6s-2.3-0.2-3.3-0.6c-1-0.4-1.9-1-2.7-1.8c-0.8-0.7-1.4-1.6-1.8-2.6s-0.7-2.1-0.7-3.2c0-1.2,0.2-2.2,0.7-3.3
			c0.4-1,1.1-1.9,1.8-2.6c0.8-0.7,1.7-1.3,2.7-1.8c1-0.4,2.1-0.6,3.3-0.6c1.2,0,2.3,0.2,3.3,0.6c1,0.4,1.9,1,2.7,1.8
			s1.4,1.6,1.8,2.6S240.4,10.8,240.4,12z M237.3,12c0-0.7-0.1-1.4-0.4-2.1s-0.7-1.2-1.1-1.7c-0.5-0.5-1.1-0.9-1.7-1.2
			c-0.7-0.3-1.3-0.4-2.1-0.4c-0.7,0-1.4,0.1-2.1,0.4c-0.7,0.3-1.2,0.7-1.7,1.2s-0.9,1.1-1.1,1.7s-0.4,1.3-0.4,2.1
			c0,0.7,0.1,1.4,0.4,2.1c0.3,0.7,0.7,1.2,1.1,1.7c0.5,0.5,1.1,0.9,1.7,1.2c0.7,0.3,1.4,0.4,2.1,0.4c0.7,0,1.4-0.1,2.1-0.4
			s1.2-0.7,1.7-1.2c0.5-0.5,0.9-1.1,1.1-1.7C237.2,13.4,237.3,12.7,237.3,12z M266.5,20H263l-1.1-3.6c-0.1-0.4-0.3-0.8-0.5-1.1
			c-0.2-0.3-0.4-0.6-0.6-0.9c-0.3-0.2-0.6-0.4-0.9-0.6s-0.8-0.2-1.2-0.2h-1.2V20h-3.1V4l6.3,0c0.7,0,1.3,0.1,1.9,0.3s1.1,0.6,1.5,1
			c0.4,0.4,0.8,0.9,1,1.5c0.2,0.6,0.4,1.2,0.4,1.8c0,0.5-0.1,0.9-0.2,1.4c-0.1,0.4-0.4,0.8-0.6,1.2s-0.6,0.7-1,1s-0.8,0.5-1.2,0.6
			c0.5,0.2,0.9,0.5,1.2,0.8c0.3,0.4,0.6,0.8,0.8,1.3c0.1,0.2,0.2,0.5,0.3,0.7c0.1,0.2,0.2,0.5,0.2,0.7s0.2,0.5,0.3,0.8
			s0.2,0.6,0.3,1c0.1,0.4,0.3,0.8,0.4,1.1S266.3,19.8,266.5,20L266.5,20z M262.4,8.8c0-0.4-0.1-0.7-0.2-1s-0.3-0.6-0.6-0.8
			c-0.2-0.2-0.5-0.4-0.9-0.5s-0.7-0.2-1-0.2h-2.2v5h2.2c0.4,0,0.7-0.1,1-0.2c0.3-0.1,0.6-0.3,0.9-0.5s0.4-0.5,0.6-0.8
			S262.4,9.2,262.4,8.8z M312.5,17.1c-0.8,1-1.8,1.7-2.9,2.3c-1.1,0.6-2.4,0.9-3.8,0.9c-1.2,0-2.3-0.2-3.3-0.6s-1.9-1-2.7-1.8
			c-0.8-0.7-1.4-1.6-1.8-2.6c-0.4-1-0.7-2.1-0.7-3.2c0-1.2,0.2-2.2,0.7-3.2s1.1-1.9,1.8-2.6c0.8-0.8,1.7-1.3,2.7-1.8
			s2.2-0.6,3.3-0.6c1.4,0,2.6,0.3,3.8,0.9s2.1,1.3,2.9,2.2L310.3,9c-0.5-0.7-1.1-1.3-1.9-1.7s-1.6-0.7-2.6-0.7
			c-0.7,0-1.4,0.1-2.1,0.4s-1.2,0.7-1.7,1.2s-0.9,1.1-1.2,1.7s-0.4,1.3-0.4,2.1c0,0.7,0.1,1.4,0.4,2.1c0.3,0.6,0.7,1.2,1.2,1.7
			c0.5,0.5,1.1,0.9,1.7,1.2s1.4,0.4,2.1,0.4c1,0,1.9-0.2,2.6-0.7s1.4-1,1.9-1.8L312.5,17.1z M338.1,20H335v-7.1h-6.3V20h-3.1V4h3.1
			v6.3h6.3V4h3.1V20z M355.8,20h-3.1V4h3.1V20z M381.2,20h-10.8V4h3.2v13h7.7V20z M408.8,12c0,1.1-0.2,2.1-0.6,3.1s-0.9,1.8-1.6,2.5
			c-0.7,0.7-1.5,1.3-2.4,1.7c-0.9,0.4-1.9,0.6-3,0.6h-6.7V4h6.7c1.1,0,2.1,0.2,3,0.6c0.9,0.4,1.7,1,2.4,1.7s1.2,1.6,1.6,2.5
			S408.8,10.9,408.8,12z M405.7,11.9c0-0.7-0.1-1.5-0.3-2.1c-0.2-0.7-0.6-1.2-1-1.8s-1-0.9-1.7-1.2c-0.7-0.3-1.4-0.4-2.2-0.4h-2.7
			v10.9h2.7c0.8,0,1.5-0.1,2.2-0.4s1.2-0.7,1.6-1.1c0.5-0.5,0.8-1.1,1-1.7C405.5,13.4,405.7,12.7,405.7,11.9L405.7,11.9z M434.8,20
			h-3.4l-1.1-3.6c-0.1-0.4-0.3-0.8-0.5-1.1c-0.2-0.3-0.4-0.6-0.6-0.9c-0.3-0.2-0.6-0.4-0.9-0.6c-0.4-0.1-0.8-0.2-1.2-0.2h-1.2V20
			h-3.1V4l6.3,0c0.7,0,1.3,0.1,1.9,0.3c0.6,0.2,1.1,0.6,1.5,1c0.4,0.4,0.8,0.9,1,1.5c0.2,0.6,0.4,1.2,0.4,1.8c0,0.5-0.1,0.9-0.2,1.4
			c-0.1,0.4-0.4,0.8-0.6,1.2s-0.6,0.7-1,1s-0.8,0.5-1.2,0.6c0.5,0.2,0.9,0.5,1.2,0.8c0.3,0.4,0.6,0.8,0.8,1.3
			c0.1,0.2,0.2,0.5,0.3,0.7c0.1,0.2,0.2,0.5,0.2,0.7s0.2,0.5,0.3,0.8s0.2,0.6,0.3,1c0.1,0.4,0.3,0.8,0.4,1.1S434.7,19.8,434.8,20
			L434.8,20z M430.8,8.8c0-0.4-0.1-0.7-0.2-1S430.2,7.2,430,7c-0.2-0.2-0.5-0.4-0.9-0.5s-0.7-0.2-1-0.2h-2.2v5h2.2
			c0.4,0,0.7-0.1,1-0.2c0.3-0.1,0.6-0.3,0.9-0.5s0.4-0.5,0.6-0.8S430.8,9.2,430.8,8.8z M458.9,20h-10.6V4h10.6v2.6h-7.5v3.8h7.4v2.5
			h-7.4v4.4h7.5C458.9,17.3,458.9,20,458.9,20z M486.2,20h-3l-7.2-11.2V20h-3V4h3.5l6.8,10.4V4h3V20z"/>
	</g>
</g>
</svg>
